<svg version="1.1" xmlns="http://www.w3.org/2000/svg" xmlns:xlink="http://www.w3.org/1999/xlink" width="482" height="362.67033" viewBox="0,0,482,362.67033"><g transform="translate(-79,1.33515)"><g stroke-miterlimit="10"><path d="M89,351.33518v-342.67033h462v342.67033z" fill="#f7f7f7" stroke="#ff0000" stroke-width="20"/><text transform="translate(174.52346,85.17713) scale(1.43763,1.28007)" font-size="40" xml:space="preserve" fill="#0020f7" stroke="none" stroke-width="1" font-family="Pixel" font-weight="normal" text-anchor="start"><tspan x="0" dy="0">ルール説明</tspan></text><text transform="translate(148.2919,120.91478) scale(0.5,0.5)" font-size="40" xml:space="preserve" fill="#000000" stroke="none" stroke-width="1" font-family="Pixel" font-weight="normal" text-anchor="start"><tspan x="0" dy="0">タップ中の方向に移動、皿をタップして</tspan><tspan x="0" dy="46.150000000000006px">今皿に乗っているたこ焼きを売却</tspan></text><path d="M167.51282,184.87263c0,12.74071 -10.04399,23.06909 -22.43387,23.06909c-12.38988,0 -22.43387,-10.32838 -22.43387,-23.06909c0,-12.74071 10.04399,-23.06909 22.43387,-23.06909c12.38988,0 22.43387,10.32838 22.43387,23.06909z" fill="#fcffa5" stroke="none" stroke-width="0"/><text transform="translate(231.52345,196.42713) scale(0.65168,0.65168)" font-size="40" xml:space="preserve" fill="#000000" stroke="none" stroke-width="1" font-family="Pixel" font-weight="normal" text-anchor="start"><tspan x="0" dy="0">15 yen</tspan></text><g stroke="none" stroke-width="0"><path d="M168.35494,248.92549c0,13.2638 -10.45636,24.01623 -23.35493,24.01623c-12.89857,0 -23.35493,-10.75243 -23.35493,-24.01623c0,-13.2638 10.45636,-24.01623 23.35493,-24.01623c12.89857,0 23.35493,10.75243 23.35493,24.01623z" fill="#fcffa5"/><path d="M130.0421,236.66339l1.68668,-2.37725l3.25536,1.32464l-1.68668,2.37725z" fill="#56ad5a"/><path d="M139.73414,233.19603l-2.5994,-1.31885l0.83164,-3.41474l2.5994,1.31885z" fill="#56ad5a"/><path d="M147.28324,234.77787l2.83845,-0.6629l1.56048,3.14912l-2.83845,0.6629z" fill="#56ad5a"/><path d="M155.17942,234.09561l-2.07597,-2.04611l1.82959,-3.00077l2.07597,2.04611z" fill="#56ad5a"/><path d="M160.16514,236.45958l1.21927,2.64756l-2.77171,2.16094l-1.21927,-2.64756z" fill="#56ad5a"/><path d="M140.53965,235.82881l1.21927,2.64756l-2.77171,2.16094l-1.21927,-2.64756z" fill="#56ad5a"/><path d="M144.72974,228.77335l1.63126,-2.41562l3.28512,1.24901l-1.63126,2.41562z" fill="#56ad5a"/></g><text transform="translate(229.52346,254.42714) scale(0.65168,0.65168)" font-size="40" xml:space="preserve" fill="#ff0000" stroke="none" stroke-width="1" font-family="Pixel" font-weight="normal" text-anchor="start"><tspan x="0" dy="0">30 yen</tspan></text><path d="M376.52344,261.17712v-68h155v68z" fill="#eaff80" stroke="none" stroke-width="0"/><text transform="translate(227.52346,315.42713) scale(0.65168,0.65168)" font-size="40" xml:space="preserve" fill="#1000ff" stroke="none" stroke-width="1" font-family="Pixel" font-weight="normal" text-anchor="start"><tspan x="0" dy="0">60 yen</tspan></text><path d="M419.88657,231.712c0,16.47749 -5.26451,22.50721 -16.92403,22.50721c-11.65951,0 -15.35375,-6.55314 -15.35375,-23.03063c0,-16.47749 15.35375,-36.63964 15.35375,-36.63964c0,0 16.92403,20.68557 16.92403,37.16307z" fill="#b60000" stroke="none" stroke-width="0"/><g fill="#56ad5a" stroke="none" stroke-width="0"><path d="M481.67549,221.55738l-12.20821,6.85657l-4.68351,-16.22011l12.20821,-6.85656z"/><path d="M440.79841,230.20243l5.18892,-13.00492l13.83529,9.67533l-5.18892,13.00492z"/><path d="M502.55197,216.36556l11.27418,8.30334l-12.85409,10.9453l-11.27419,-8.30335z"/></g><text transform="translate(385.52344,183.17712) scale(0.67335,0.67335)" font-size="40" xml:space="preserve" fill="#ff00d2" stroke="none" stroke-width="1" font-family="Pixel" font-weight="normal" text-anchor="start"><tspan x="0" dy="0">トッピング</tspan></text><path d="M426.17989,309.57164c0,11.80236 -9.30425,21.37006 -20.78162,21.37006c-11.47737,0 -20.78162,-9.5677 -20.78162,-21.37006c0,-11.80236 9.30425,-21.37006 20.78162,-21.37006c11.47737,0 20.78162,9.5677 20.78162,21.37006z" fill="#404040" stroke="#272727" stroke-width="5"/><path d="M441.79383,283.61432c0.41379,1.65518 -1.24138,2.06897 -1.24138,2.06897l-1.33032,0.3194c-3.56265,0.03043 -7.04975,0.85332 -10.61453,0.85652c-1.15863,0.00104 -2.75977,0.27268 -3.86935,-0.07321c-0.81277,-0.25336 -1.47584,-0.85116 -2.23731,-1.2319c-0.78159,-0.3908 -1.58435,-0.74221 -2.34331,-1.17534c-0.88407,-0.50453 -1.68372,-1.16264 -2.60901,-1.58686c-0.46826,-0.21468 -1.03857,-0.0669 -1.52897,-0.22458c-0.32179,-0.10347 -0.52293,-0.45602 -0.84374,-0.56249c-0.20083,-0.06665 -0.41913,0.06495 -0.63058,0.07321c-0.3053,0.01192 -0.61101,-0.00852 -0.91652,-0.01278c-0.93544,0.2155 -1.66023,0.8201 -2.53916,1.23889c-0.26089,0.12431 -0.57982,0.15323 -0.79479,0.34637c-0.32295,0.29016 -0.45621,0.74878 -0.76446,1.05452c-0.17785,0.1764 -0.49984,0.16637 -0.66034,0.35868c-0.12119,0.14521 -0.02263,0.3872 -0.10448,0.55772c-0.16366,0.34094 -0.41836,0.63023 -0.61948,0.9505c-0.18892,0.30084 -0.30823,0.65271 -0.55048,0.91255c-0.30521,0.32738 -0.61296,0.16698 -0.67091,0.5918c-0.17499,1.28279 -0.15152,2.62009 -0.23821,3.92104c-0.10788,1.61886 -0.27863,3.07928 -0.27863,4.68682c0,0 0,1.70612 -1.70612,1.70612c-1.70612,0 -1.70612,-1.70612 -1.70612,-1.70612c0,-1.66773 0.17228,-3.20247 0.28386,-4.87552c0.03846,-0.57667 -0.04468,-1.15788 0.0032,-1.73384c0.04725,-0.56829 0.21588,-1.12098 0.28125,-1.68747c0.04187,-0.36283 -0.0402,-0.73863 0.03983,-1.095c0.08084,-0.35996 0.8072,-1.70776 1.01656,-1.9394c0.14056,-0.15552 0.4035,-0.14462 0.56249,-0.28125c0.05379,-0.04622 -0.02193,-0.15016 0.01201,-0.21243c0.14257,-0.26156 0.36887,-0.47226 0.5055,-0.73697c0.18638,-0.36109 0.20744,-0.80985 0.45801,-1.12975c0.2634,-0.33628 0.72598,-0.46336 1.02713,-0.7663c0.35493,-0.35704 0.53564,-0.8739 0.92302,-1.19544c0.4233,-0.35137 0.9669,-0.52518 1.45517,-0.77861c0.69457,-0.36051 1.31633,-0.86509 2.0415,-1.15925c0.51253,-0.20791 1.07116,-0.27621 1.60674,-0.41431c0.5238,-0.00502 2.53044,-0.04859 2.95283,0.06042c0.32729,0.08447 0.52457,0.4512 0.84374,0.56249c0.19663,0.06856 0.41778,-0.08867 0.62262,-0.05118c0.42092,0.07705 0.82775,0.22596 1.22335,0.38909c1.08046,0.44551 2.00151,1.20765 3.0159,1.78808c1.09168,0.62467 2.29585,1.04129 3.37494,1.68747c0.18004,0.10781 0.28692,0.32737 0.4818,0.40522c0.11048,0.04414 0.23046,-0.06825 0.34933,-0.07321c0.843,-0.03515 1.68747,-0.00081 2.53121,0c3.42307,0.00329 6.77558,-0.86739 10.19761,-0.83095l0.91965,-0.24309c0,0 1.65518,-0.41379 2.06897,1.24138z" fill="#d0e1ab" stroke="none" stroke-width="0.5"/><path d="M435.3295,289.17278v-9.88537h9.44274v9.88537z" fill="#ff0000" stroke="none" stroke-width="0"/><path d="M433.07202,284.40854l7.04614,-6.93343l6.62298,6.73064l-7.04614,6.93343z" fill="#ff0000" stroke="none" stroke-width="0"/><text transform="translate(448.52344,301.17709) scale(0.5,0.5)" font-size="40" xml:space="preserve" fill="#000000" stroke="none" stroke-width="1" font-family="Pixel" font-weight="normal" text-anchor="start"><tspan x="0" dy="0"> お邪魔</tspan><tspan x="0" dy="46.150000000000006px">アイテム</tspan></text><g stroke="none" stroke-width="0"><path d="M221.86244,250.12903c0,13.81488 -10.8908,25.01405 -24.32527,25.01405c-13.43448,0 -24.32527,-11.19917 -24.32527,-25.01405c0,-13.81488 10.8908,-25.01405 24.32527,-25.01405c13.43448,0 24.32527,11.19917 24.32527,25.01405z" fill="#fcffa5"/><path d="M221.89362,250.11272c0,4.9326 -2.26691,2.92833 -3.54514,0.31478c-0.75629,-1.54635 -0.23864,-1.81537 -2.26787,-3.3266c-3.03001,-2.25656 -4.66163,-2.03518 -4.70868,-2.05422c-4.11424,4.89253 -7.36209,5.50665 -8.43264,4.82745c-1.58708,-2.00925 0.72929,1.27658 -3.71097,-5.09468c-0.227,-0.84011 -3.82166,-0.97893 -4.95625,0.34226c-1.68411,1.96108 -0.35837,5.39564 -2.42362,5.94344c-2.35182,0.62381 -5.75668,-6.03908 -7.11834,-5.20736c-2.25883,1.37973 -3.9015,4.81009 -5.40036,6.25135c-4.52169,4.34793 -6.08669,5.57343 -6.08669,-1.9964c0,-13.81488 10.8908,-25.01405 24.32527,-25.01405c13.43448,0 24.32527,11.19917 24.32527,25.01405z" fill="#de0000"/></g><g stroke="none" stroke-width="0"><path d="M170.53275,306.19257c0,13.84989 -10.9184,25.07746 -24.38693,25.07746c-13.46853,0 -24.38693,-11.22756 -24.38693,-25.07746c0,-13.84989 10.9184,-25.07746 24.38693,-25.07746c13.46853,0 24.38693,11.22756 24.38693,25.07746z" fill="#fcffa5"/><path d="M170.56402,306.17622c0,4.9451 -2.27265,2.93575 -3.55412,0.31557c-0.7582,-1.55027 -0.23925,-1.81997 -2.27361,-3.33503c-3.03769,-2.26228 -4.67345,-2.04035 -4.72062,-2.05943c-4.12467,4.90494 -7.38075,5.52061 -8.45401,4.83969c-1.5911,-2.01434 0.73114,1.27981 -3.72037,-5.1076c-0.22757,-0.84223 -3.83135,-0.9814 -4.96881,0.34313c-1.68838,1.96605 -0.35928,5.40932 -2.42976,5.95851c-2.35778,0.62539 -5.77127,-6.0544 -7.13638,-5.22056c-2.26456,1.38323 -3.9114,4.82228 -5.41405,6.2672c-4.53315,4.35895 -6.10212,5.58756 -6.10212,-2.00146c0,-13.84989 10.9184,-25.07746 24.38693,-25.07746c13.46853,0 24.38693,11.22756 24.38693,25.07746z" fill="#de0000"/><path d="M130.54258,293.38047l1.76121,-2.48229l3.3992,1.38317l-1.76121,2.48229z" fill="#56ad5a"/><path d="M140.66289,289.75989l-2.71425,-1.37713l0.86839,-3.56563l2.71426,1.37713z" fill="#56ad5a"/><path d="M148.54557,291.41163l2.96387,-0.6922l1.62943,3.28828l-2.96387,0.69219z" fill="#56ad5a"/><path d="M156.79068,290.69923l-2.1677,-2.13653l1.91043,-3.13337l2.1677,2.13652z" fill="#56ad5a"/><path d="M161.99669,293.16764l1.27315,2.76455l-2.89418,2.25643l-1.27315,-2.76455z" fill="#56ad5a"/><path d="M141.504,292.50901l1.27315,2.76455l-2.89419,2.25642l-1.27315,-2.76455z" fill="#56ad5a"/><path d="M145.87924,285.14179l1.70334,-2.52236l3.43028,1.30421l-1.70334,2.52235z" fill="#56ad5a"/></g></g></g></svg>