<svg version="1.1" xmlns="http://www.w3.org/2000/svg" xmlns:xlink="http://www.w3.org/1999/xlink" width="182.70986" height="187.88334" viewBox="0,0,182.70986,187.88334"><g transform="translate(-148.64506,-86.05834)"><g data-paper-data="{&quot;isPaintingLayer&quot;:true}" fill-rule="nonzero" stroke="none" stroke-width="0" stroke-linecap="butt" stroke-linejoin="miter" stroke-miterlimit="10" stroke-dasharray="" stroke-dashoffset="0" style="mix-blend-mode: normal"><path d="M331.35492,180.00001c0,51.88255 -40.901,93.94167 -91.35493,93.94167c-50.45394,0 -91.35493,-42.05912 -91.35493,-93.94167c0,-51.88255 40.901,-93.94167 91.35493,-93.94167c50.45394,0 91.35493,42.05912 91.35493,93.94167z" fill="#fcffa5"/><path d="M181.49074,132.03572l6.5976,-9.29883l12.73364,5.18144l-6.5976,9.29883z" fill="#56ad5a"/><path d="M219.40205,118.47278l-10.16777,-5.1588l3.25304,-13.35705l10.16777,5.1588z" fill="#56ad5a"/><path d="M248.93103,124.66028l11.10284,-2.59301l6.10394,12.31808l-11.10284,2.59301z" fill="#56ad5a"/><path d="M279.8177,121.9916l-8.12034,-8.00356l7.15661,-11.7378l8.12033,8.00356z" fill="#56ad5a"/><path d="M299.31975,131.23845l4.7693,10.35618l-10.8418,8.45271l-4.76929,-10.35618z" fill="#56ad5a"/><path d="M222.55288,128.77116l4.7693,10.35618l-10.84181,8.45271l-4.76928,-10.35618z" fill="#56ad5a"/><path d="M238.94281,101.17312l6.38081,-9.44892l12.85005,4.88562l-6.38082,9.4489z" fill="#56ad5a"/></g></g></svg>