<svg version="1.1" xmlns="http://www.w3.org/2000/svg" xmlns:xlink="http://www.w3.org/1999/xlink" width="182.827" height="187.94457" viewBox="0,0,182.827,187.94457"><g transform="translate(-148.5865,-86.02772)"><g data-paper-data="{&quot;isPaintingLayer&quot;:true}" fill-rule="nonzero" stroke="none" stroke-width="0" stroke-linecap="butt" stroke-linejoin="miter" stroke-miterlimit="10" stroke-dasharray="" stroke-dashoffset="0" style="mix-blend-mode: normal"><g><path d="M331.29636,180.03062c0,51.88255 -40.901,93.94167 -91.35493,93.94167c-50.45394,0 -91.35493,-42.05912 -91.35493,-93.94167c0,-51.88255 40.901,-93.94167 91.35493,-93.94167c50.45394,0 91.35493,42.05912 91.35493,93.94167z" fill="#fcffa5"/><path d="M331.41349,179.96938c0,18.52464 -8.51349,10.9975 -13.31396,1.18216c-2.84028,-5.80742 -0.89624,-6.81771 -8.5171,-12.49324c-11.37937,-8.47463 -17.50702,-7.64325 -17.6837,-7.71474c-15.45126,18.37419 -27.64874,20.68054 -31.66924,18.12975c-5.96038,-7.54585 2.73888,4.79428 -13.93675,-19.13337c-0.85251,-3.15507 -14.35246,-3.67641 -18.61347,1.28536c-6.32478,7.36495 -1.34589,20.26364 -9.10204,22.32093c-8.8324,2.34276 -21.61955,-22.68012 -26.73332,-19.55654c-8.48317,5.18167 -14.65231,18.06456 -20.28135,23.4773c-16.98147,16.3289 -22.85892,20.93134 -22.85892,-7.4976c0,-51.88255 40.901,-93.94167 91.35493,-93.94167c50.45394,0 91.35493,42.05912 91.35493,93.94167z" fill="#de0000"/><path d="M181.49074,132.03573l6.5976,-9.29883l12.73364,5.18144l-6.5976,9.29883z" fill="#56ad5a"/><path d="M219.40205,118.4728l-10.16777,-5.1588l3.25304,-13.35705l10.16777,5.1588z" fill="#56ad5a"/><path d="M248.93103,124.6603l11.10284,-2.59301l6.10394,12.31808l-11.10284,2.59301z" fill="#56ad5a"/><path d="M279.8177,121.99162l-8.12034,-8.00356l7.15661,-11.7378l8.12033,8.00356z" fill="#56ad5a"/><path d="M299.31975,131.23845l4.7693,10.35618l-10.8418,8.45271l-4.76929,-10.35618z" fill="#56ad5a"/><path d="M222.55288,128.77118l4.7693,10.35618l-10.84181,8.45271l-4.76928,-10.35618z" fill="#56ad5a"/><path d="M238.94281,101.17314l6.38081,-9.44892l12.85005,4.88562l-6.38082,9.4489z" fill="#56ad5a"/></g></g></g></svg>