<svg version="1.1" xmlns="http://www.w3.org/2000/svg" xmlns:xlink="http://www.w3.org/1999/xlink" width="308.66021" height="261.81199" viewBox="0,0,308.66021,261.81199"><g transform="translate(-143.64506,-17.12973)"><g data-paper-data="{&quot;isPaintingLayer&quot;:true}" fill-rule="nonzero" stroke-linecap="butt" stroke-linejoin="miter" stroke-miterlimit="10" stroke-dasharray="" stroke-dashoffset="0" style="mix-blend-mode: normal"><path d="M376.14549,70.08934l-23.72848,-47.82744l50.64888,19.6905l49.23939,-24.82267l-22.36232,50.53768l13.24369,33.68347l-40.16409,-5.5465l-50.29429,14.59823z" fill="#ff0000" stroke="none" stroke-width="0"/><path d="M331.35492,180.00005c0,51.88255 -40.901,93.94167 -91.35493,93.94167c-50.45394,0 -91.35493,-42.05912 -91.35493,-93.94167c0,-51.88255 40.901,-93.94167 91.35493,-93.94167c50.45394,0 91.35493,42.05912 91.35493,93.94167z" fill="#404040" stroke="#272727" stroke-width="10"/><path d="M399.99306,65.89302c1.81902,7.27607 -5.45705,9.09509 -5.45705,9.09509l-5.848,1.40408c-15.66121,0.13379 -30.99035,3.75114 -46.66094,3.76521c-5.09328,0.00457 -12.1318,1.19867 -17.00946,-0.32181c-3.57291,-1.11376 -6.48773,-3.74166 -9.8351,-5.41535c-3.43585,-1.71793 -6.96474,-3.26273 -10.30107,-5.16674c-3.88631,-2.21787 -7.40156,-5.11092 -11.46907,-6.97577c-2.05844,-0.94374 -4.56552,-0.2941 -6.72129,-0.98725c-1.41457,-0.45483 -2.29876,-2.00465 -3.70902,-2.47268c-0.88285,-0.29299 -1.84249,0.28551 -2.77198,0.32181c-1.3421,0.05242 -2.68599,-0.03746 -4.02898,-0.05619c-4.11215,0.94732 -7.2983,3.6051 -11.16201,5.4461c-1.14687,0.54646 -2.54884,0.67357 -3.49386,1.52261c-1.41969,1.27551 -2.00548,3.29162 -3.36051,4.63562c-0.7818,0.77543 -2.19727,0.73134 -2.90283,1.57673c-0.53276,0.63834 -0.09947,1.70213 -0.45928,2.4517c-0.71942,1.49875 -1.83909,2.77045 -2.72322,4.17833c-0.83049,1.32248 -1.35497,2.8693 -2.41986,4.01153c-1.3417,1.43914 -2.69454,0.73402 -2.94929,2.60154c-0.76923,5.63909 -0.66608,11.51779 -1.04718,17.2367c-0.47424,7.11644 -1.22486,13.53636 -1.22486,20.60302c0,0 0,7.5 -7.5,7.5c-7.5,0 -7.5,-7.5 -7.5,-7.5c0,-7.33127 0.75732,-14.07791 1.24782,-21.43253c0.16907,-2.535 -0.19642,-5.08999 0.01408,-7.62189c0.2077,-2.49817 0.94899,-4.92778 1.23634,-7.41804c0.18405,-1.595 -0.17673,-3.247 0.17508,-4.81356c0.35536,-1.58237 3.54842,-7.50724 4.46875,-8.52551c0.6179,-0.68366 1.77376,-0.63576 2.47268,-1.23634c0.23646,-0.20319 -0.0964,-0.66008 0.05281,-0.93383c0.62674,-1.1498 1.62152,-2.07605 2.22214,-3.2397c0.81931,-1.58734 0.9119,-3.56006 2.0134,-4.96634c1.15791,-1.47828 3.19135,-2.0369 4.5152,-3.36863c1.56024,-1.56952 2.35466,-3.8416 4.05753,-5.25509c1.8608,-1.54459 4.25043,-2.30867 6.39686,-3.42275c3.05331,-1.58478 5.78654,-3.80288 8.97433,-5.09601c2.25307,-0.91396 4.70876,-1.21419 7.06314,-1.82129c2.3026,-0.02207 11.12369,-0.21359 12.98047,0.26562c1.43875,0.37132 2.30598,1.98344 3.70902,2.47268c0.86437,0.3014 1.83656,-0.3898 2.737,-0.22497c1.85033,0.33871 3.63874,0.99333 5.37778,1.7104c4.74965,1.95844 8.79855,5.30875 13.25772,7.86031c4.79898,2.746 10.09246,4.57747 14.83608,7.41804c0.79144,0.47393 1.26129,1.4391 2.11795,1.78131c0.48568,0.19402 1.01309,-0.30002 1.53564,-0.32181c3.7058,-0.15453 7.41804,-0.00356 11.12706,0c15.04764,0.01445 29.78511,-3.81302 44.82819,-3.65283l4.04272,-1.0686c0,0 7.27607,-1.81902 9.09509,5.45705z" fill="#d0e1ab" stroke="none" stroke-width="0.5"/><path d="M385.43752,70.17192l-14.9144,-30.06166l31.83506,12.37635l30.94914,-15.60215l-14.05571,31.76516l8.32424,21.17155l-25.24491,-3.48623l-31.61219,9.17563z" fill="#ffa000" stroke="none" stroke-width="0"/><path d="M400.06066,74.92094l-11.93515,-2.14981l10.44975,-6.56976l2.14148,-12.34082l6.18765,10.92192l7.93599,2.14639l-6.45059,6.57317l-4.14886,11.14856z" fill="#e1ff00" stroke="none" stroke-width="0"/></g></g></svg>