<svg version="1.1" xmlns="http://www.w3.org/2000/svg" xmlns:xlink="http://www.w3.org/1999/xlink" width="367.70715" height="375.99041" viewBox="0,0,367.70715,375.99041"><g transform="translate(-61.79357,11.87714)"><g data-paper-data="{&quot;isPaintingLayer&quot;:true}" fill-rule="nonzero" stroke="none" stroke-width="0" stroke-linecap="butt" stroke-linejoin="miter" stroke-miterlimit="10" stroke-dasharray="" stroke-dashoffset="0" style="mix-blend-mode: normal"><path d="M76.86158,113.33068l110.53437,-8.84092l113.13659,-90.63782l8.86163,131.25799l102.67513,119.52461l-141.58342,-17.40742l-82.08755,116.88615l-36.3201,-144.53952z" fill="#ff0000"/><path d="M71.84389,235.388l76.03292,-80.71558l23.08333,-143.11625l94.63484,91.3862l156.32813,19.74414l-116.66725,82.08311l17.551,141.74872l-123.90695,-82.81238z" fill="#ff0000"/><path d="M103.41344,287.7805l102.6162,-102.6162l-102.6162,-142.17907l135.99737,110.03424l138.47005,-110.03424l-112.50691,140.94273l112.50691,103.85253l-145.88809,-69.23503z" fill="#ff6f00"/><path d="M61.79357,173.86614l144.70204,-11.02213l14.74749,-174.72115l31.51895,172.07374l176.73867,6.70301l-177.17114,33.66075l17.7216,152.08254l-65.59865,-147.55893z" fill="#ff6f00"/><path d="M81.13394,104.11197l136.76888,48.52259l84.24142,-153.78021l-40.86656,170.09627l158.88268,77.70316l-175.62433,-40.97257l-45.38597,146.23019l-0.22132,-161.48304z" fill="#ff6f00"/><path d="M143.50002,139.42711l76.62304,16.49574l49.19304,-76.41648l-10.901,91.88654l78.08486,49.17998l-92.56086,-20.85206l-33.25523,80.77281l-1.36233,-89.4559z" fill="#fff600"/></g></g></svg>